<?xml version="1.0" standalone="no"?>
<!DOCTYPE svg PUBLIC "-//W3C//DTD SVG 20010904//EN"
 "http://www.w3.org/TR/2001/REC-SVG-20010904/DTD/svg10.dtd">
<svg version="1.0" xmlns="http://www.w3.org/2000/svg"
 width="250.000000pt" height="250.000000pt" viewBox="0 0 250.000000 250.000000"
 preserveAspectRatio="xMidYMid meet">
<metadata>
Created by potrace 1.11, written by Peter Selinger 2001-2013
</metadata>
<g transform="translate(0.000000,250.000000) scale(0.100000,-0.100000)"
fill="#000000" stroke="none">
<path d="M885 2372 c-74 -7 -177 -38 -260 -78 -153 -74 -291 -219 -357 -375
-16 -39 -32 -80 -34 -92 -19 -89 -24 -128 -25 -186 -2 -73 8 -161 22 -198 5
-13 7 -23 4 -23 -7 0 44 -122 71 -169 125 -216 340 -353 590 -376 71 -7 83
-11 138 -53 207 -154 474 -187 711 -90 415 171 571 685 321 1060 -109 165
-305 290 -493 314 -26 3 -53 20 -102 65 -137 126 -299 195 -476 201 -44 2 -93
2 -110 0z"/>
<path d="M1043 554 c-3 -9 -6 -73 -5 -143 0 -191 -2 -178 27 -178 21 0 25 4
25 29 0 16 9 39 20 51 l21 22 47 -52 c35 -39 54 -52 74 -51 31 1 32 -1 -31 82
l-44 57 49 50 48 49 -34 0 c-28 -1 -46 -11 -88 -50 -29 -28 -55 -50 -58 -50
-3 0 -4 41 -3 92 3 86 2 91 -19 99 -17 7 -24 5 -29 -7z"/>
<path d="M1561 560 c-11 -6 -14 -39 -13 -142 1 -203 -2 -188 27 -186 28 3 26
-12 27 187 1 106 -2 135 -13 142 -8 4 -21 4 -28 -1z"/>
<path d="M180 460 c0 -5 18 -58 40 -117 35 -94 44 -109 64 -111 25 -2 35 13
71 111 10 26 19 46 21 45 1 -2 16 -37 32 -78 26 -66 33 -75 56 -76 22 -1 28 6
42 45 26 73 66 175 71 184 3 5 -7 7 -22 5 -25 -3 -31 -12 -60 -87 l-32 -85
-30 85 c-26 72 -34 84 -56 87 -22 3 -27 -4 -53 -77 -16 -45 -32 -81 -35 -81
-4 0 -20 36 -35 80 -24 68 -32 80 -51 80 -13 0 -23 -4 -23 -10z"/>
<path d="M633 454 c-30 -15 -55 -59 -59 -105 -4 -55 66 -119 131 -119 70 0
133 75 120 143 -16 84 -108 122 -192 81z m120 -52 c24 -21 22 -77 -3 -102 -39
-39 -120 -11 -120 41 0 75 68 109 123 61z"/>
<path d="M869 468 c-1 -6 -1 -174 0 -205 1 -26 5 -33 21 -33 27 0 36 25 34 92
-2 61 19 98 55 98 22 0 33 21 21 41 -8 11 -15 12 -42 1 -21 -8 -34 -9 -36 -2
-3 8 -51 15 -53 8z"/>
<path d="M1351 457 c-86 -44 -83 -176 6 -213 45 -19 82 -17 121 6 36 22 40 35
14 49 -12 6 -23 5 -37 -5 -24 -18 -66 -18 -89 -1 -20 15 -29 73 -14 100 15 30
56 40 91 22 30 -15 67 -12 67 5 0 5 -12 18 -26 29 -30 24 -95 28 -133 8z"/>
<path d="M1678 457 c-23 -11 -25 -15 -14 -35 9 -17 15 -19 23 -11 19 19 92 14
108 -7 19 -27 10 -34 -46 -34 -60 0 -87 -12 -99 -46 -26 -67 73 -123 138 -78
20 14 22 14 22 0 0 -11 8 -15 25 -14 25 2 25 4 25 91 0 85 -1 90 -29 118 -25
24 -37 29 -78 28 -26 0 -60 -6 -75 -12z m124 -143 c-10 -57 -102 -60 -102 -3
0 14 35 25 73 24 26 -1 31 -5 29 -21z"/>
<path d="M1928 450 c-33 -26 -40 -64 -17 -89 19 -21 32 -26 92 -36 37 -6 47
-21 26 -42 -11 -11 -73 -7 -100 7 -10 6 -19 2 -28 -12 -15 -25 -16 -24 41 -39
61 -17 114 -4 142 34 19 26 19 30 5 55 -11 21 -28 30 -74 42 -62 16 -75 33
-43 54 12 7 29 7 58 -1 36 -9 42 -8 50 8 14 25 -14 39 -78 39 -34 0 -57 -6
-74 -20z"/>
<path d="M2136 447 c-51 -51 -26 -100 58 -116 55 -10 76 -25 59 -42 -14 -14
-85 -14 -111 0 -16 8 -21 7 -26 -5 -10 -25 -7 -30 17 -41 73 -32 177 0 177 54
-1 41 -21 61 -75 73 -63 14 -76 22 -66 39 11 17 67 24 91 11 15 -8 21 -6 30
11 7 11 9 24 5 27 -3 3 -35 8 -70 10 -58 4 -66 2 -89 -21z"/>
</g>
</svg>
